<svg xmlns="http://www.w3.org/2000/svg" xmlns:xlink="http://www.w3.org/1999/xlink" viewBox="0 0 201.99 59.48"><defs><clipPath id="abdaf5ea-b254-4b04-a911-e7b6db42a5e5" transform="translate(0 0)"><rect width="201.99" height="59.48" fill="none"/></clipPath></defs><title>logo-desktop</title><g id="a934025a-7e63-4cfa-b2ff-767b6618d74a" data-name="Layer 2"><g id="e105ea58-4a4e-486a-9005-cf19b1cb39b8" data-name="Layer 1"><g clip-path="url(#abdaf5ea-b254-4b04-a911-e7b6db42a5e5)"><g clip-path="url(#abdaf5ea-b254-4b04-a911-e7b6db42a5e5)"><path d="M59.88,24A25.61,25.61,0,1,0,32.51,59.2c-.58-2.09-1.17-4.4-1.7-6.85a32.94,32.94,0,0,0,4.77,2.55h0s.12,2.16.28,4.57A25.48,25.48,0,0,0,41.19,59a2.14,2.14,0,0,1,0-.76c.29-1.87,1.09-5.24,1.25-7.41a15.22,15.22,0,0,0,2.9-3.71v0l-.06.44c-.55,4.26-1.7,8.81-2.4,10.07a5.58,5.58,0,0,1-.83,1.15A25.64,25.64,0,0,0,59.88,24m-1.47,3.79c-.44.43-1.35.72-1.5-.58S56.72,25,56.72,25s-1.93-3.43-2.65-3.47-5.83,3.47-7.18,5c-1.17,1.29-1.4,1.2-1.4,3.47,0,1.71.22,8.17.1,13.11l-8.15,2.17A64,64,0,0,1,29.64,47l-1-5.83H28.5L25.93,28s-3.81-1.44-5.21-1.83a3.76,3.76,0,0,0-4,.63,5.07,5.07,0,0,0-1.73,3.85,7.14,7.14,0,0,1,.48,1.45c.05.48-1.2.43-2,.43s-.92-1.44-.29-3.13A23.13,23.13,0,0,1,15,25.66a12,12,0,0,1,2.08-2.89s.14-.34,1.25-.24,7.28.43,7.28.43l.05-2.27a142.77,142.77,0,0,1,20.24-1.34c0,.61,0,1.22,0,1.83a22.52,22.52,0,0,1,8.14-2,.91.91,0,0,1,.77.39c.34.43,2.41,3,2.65,3.37a28,28,0,0,1,1.83,3,6.24,6.24,0,0,1-.86,1.78" transform="translate(0 0)" fill="#fdc305"/><path d="M56.46,21.67c.47.6.88,1.13,1,1.29a28,28,0,0,1,1.83,3,6.24,6.24,0,0,1-.86,1.78c-.44.44-1.35.72-1.5-.58S56.72,25,56.72,25s-1.93-3.43-2.65-3.47-5.83,3.47-7.18,5c-1.17,1.29-1.4,1.2-1.4,3.47,0,1.5.17,6.65.13,11.23,1.81.2,4.47.71,5.27,1.88,0,0-.29-7.18,7.81-3.42,0,0,.28-9.79,11.46-7.28a43.72,43.72,0,0,0-13.7-10.69" transform="translate(0 0)" fill="#f06351"/><path d="M45.93,19.35a90.45,90.45,0,0,0-1.4-16.53s-.15-1.3-.87-.24a14.26,14.26,0,0,0-1.2,4,70.88,70.88,0,0,0-12.82.34c-.82-2.75-2.22-4-2.89-3.67S26,6.53,26,6.53l-.33,14.16a142.77,142.77,0,0,1,20.24-1.34" transform="translate(0 0)" fill="#f06351"/><path d="M45.35,47.12c.13-1.07.2-2.49.24-4.06l-8.15,2.16A66.32,66.32,0,0,1,29.64,47l1.11,5,.06.33a32.94,32.94,0,0,0,4.77,2.55,42,42,0,0,0,6.87-4.13v.06a15.41,15.41,0,0,0,2.9-3.71" transform="translate(0 0)" fill="#e55645"/><path d="M32,16.22c-.05-.1,1,.68,1.41.92s.61.43.61.59-.26.34-.63.34-.91-.12-1-.26.6,0,.94,0h.29A8.08,8.08,0,0,1,32,16.22" transform="translate(0 0)"/><path d="M39.5,16.33s-1,1.28-1.09,1.34-.17.34.19.29a8.09,8.09,0,0,0,1.22-.28c.11-.06.07-.2-.12-.18s-.68.05-1,.11l.85-1.27s0-.12-.06,0" transform="translate(0 0)"/><path d="M36.36,22.44a2.3,2.3,0,0,0,1.09-1c.28-.66,0-.91-.44-1a2.45,2.45,0,0,0-1.75.34c-.4.37-.34.73,0,1a5.16,5.16,0,0,0,1.15.69" transform="translate(0 0)"/><path d="M36,23.7a2.05,2.05,0,0,1-.46.6,1.75,1.75,0,0,1-1,.38A2.18,2.18,0,0,1,33,24.24a2,2,0,0,1-.53-.45,1,1,0,0,0-.36-.25s.75,4.12,2.57,4.77,2.16-.76,2.21-1.14a5.63,5.63,0,0,0-.82-3.24c0-.3,0-.1-.13-.23" transform="translate(0 0)" fill="#f06351"/><path d="M34.3,24.84h0a3.5,3.5,0,0,1-2.35-1.43.15.15,0,0,1,0-.2.14.14,0,0,1,.2,0,3.22,3.22,0,0,0,2.11,1.31h0a2.11,2.11,0,0,0,1.64-1l.14-.18.1.21s.38.76,1,.8,1.06-.42,1.63-1.29a.14.14,0,1,1,.24.16q-1,1.47-1.89,1.41A1.55,1.55,0,0,1,36,23.9a2.26,2.26,0,0,1-1.73.94" transform="translate(0 0)"/><path d="M32.8,36a3.75,3.75,0,1,1,4.9,2,3.74,3.74,0,0,1-4.9-2" transform="translate(0 0)" fill="#fdc305"/><path d="M41.23,31.5,38.1,32.81l1.15-5.63-7.5,9.76,3.13-1.31-1.15,5.64Zm-7.39,3.83L38,29.92l-.81,4,2-.82L35,38.52l.81-4Z" transform="translate(0 0)" fill="#111"/><path d="M31.4,33.18a1.12,1.12,0,1,1,1.47.6,1.12,1.12,0,0,1-1.47-.6" transform="translate(0 0)" fill="#111"/><path d="M38.23,37.44a.79.79,0,1,1,1,.43.78.78,0,0,1-1-.43" transform="translate(0 0)" fill="#111"/><path d="M39.6,35.53a.35.35,0,0,1,.19-.45.34.34,0,0,1,.45.18.35.35,0,0,1-.18.46.36.36,0,0,1-.46-.19" transform="translate(0 0)" fill="#111"/><path d="M45.88,21.16a57.46,57.46,0,0,0-5.09,5.21,31.88,31.88,0,0,1-5.31,4.9c-.22-.53-1.63-1.52-1.63-1.52s-3.14-2.15-5.2-3.84a31.9,31.9,0,0,1-3.14-3l-2-.11a22.63,22.63,0,0,0,12,8.84c.86-.14,3.28-1.87,5.09-3.28a58.68,58.68,0,0,0,6-5.91,6.38,6.38,0,0,0,1.14-2c-1.12.38-1.84.71-1.84.71" transform="translate(0 0)" fill="#f06351"/><polygon points="65.22 3.5 56.76 12.94 55.54 10.94 63.69 0 65.22 3.5" fill="#fdc305"/><polygon points="62.65 17.26 68.19 13.15 67.41 9.41 62 14.22 62.65 17.26" fill="#fdc305"/><polygon points="59.92 49.37 66.05 52.55 69.06 50.21 62.37 47.46 59.92 49.37" fill="#fdc305"/><polygon points="1.95 5.97 5.02 2.61 14.31 11.61 13.09 13.89 1.95 5.97" fill="#fdc305"/><polygon points="7.38 16.28 2.68 13.15 0.28 17.01 5.43 19.42 7.38 16.28" fill="#fdc305"/><polygon points="13.91 52.55 9.36 55.9 12.16 59.48 16.18 55.46 13.91 52.55" fill="#fdc305"/><path d="M25.93,28s-3.81-1.44-5.21-1.83a3.76,3.76,0,0,0-4,.63,5.07,5.07,0,0,0-1.73,3.85,7.14,7.14,0,0,1,.48,1.45c.05.48-1.2.43-2,.43s-.92-1.44-.29-3.13A22.81,22.81,0,0,1,15,25.66c-5.45,2.84-15,9.4-15,9.4a45.82,45.82,0,0,1,8.19.24c5.26.53,5,4.67,5,4.67a38.63,38.63,0,0,1,5.63-1.11c2.12-.14,2.27,2.13,2.27,2.13l.53,3.85a18.29,18.29,0,0,1,2.65-2.36,6.06,6.06,0,0,1,4.38-1.3h0Z" transform="translate(0 0)" fill="#f06351"/><path d="M85.66,42a8.23,8.23,0,0,1-1.4-5.19v-7.5a8.42,8.42,0,0,1,1.38-5.24q1.39-1.79,4.75-1.78t4.55,1.57a6.72,6.72,0,0,1,1.33,4.49v1.76H92.13V28.2A10,10,0,0,0,92,26.7a1.68,1.68,0,0,0-.47-.95,1.56,1.56,0,0,0-1.15-.37,1.46,1.46,0,0,0-1.5.75,5.47,5.47,0,0,0-.34,2.2v9.52a4.78,4.78,0,0,0,.39,2.2,1.48,1.48,0,0,0,1.45.73,1.35,1.35,0,0,0,1.4-.74,6.06,6.06,0,0,0,.31-2.19v-2h4.14v1.73A7.23,7.23,0,0,1,95,42.19c-.88,1.1-2.4,1.64-4.56,1.64s-3.8-.6-4.73-1.8" transform="translate(0 0)" fill="#111"/><path d="M101.91,22.58h4.74l4,21h-3.94L106,38.94h-3.31l-.81,4.61h-4Zm3.65,13.72-1.26-8.44-1.25,8.44Z" transform="translate(0 0)" fill="#111"/><polygon points="113.72 25.74 110.48 25.74 110.48 22.58 121.2 22.58 121.2 25.74 118.01 25.74 118.01 43.55 113.72 43.55 113.72 25.74" fill="#111"/><polygon points="129.61 22.58 137.74 22.58 137.74 24.76 132.54 24.76 132.54 31.69 136.76 31.69 136.76 33.76 132.54 33.76 132.54 41.45 137.79 41.45 137.79 43.55 129.61 43.55 129.61 22.58" fill="#444"/><polygon points="140.15 22.58 142.14 22.58 148.09 36.51 148.09 22.58 150.53 22.58 150.53 43.55 148.66 43.55 142.63 29.23 142.63 43.55 140.15 43.55 140.15 22.58" fill="#444"/><polygon points="153.81 22.58 161.94 22.58 161.94 24.76 156.74 24.76 156.74 31.69 160.96 31.69 160.96 33.76 156.74 33.76 156.74 41.45 162 41.45 162 43.55 153.81 43.55 153.81 22.58" fill="#444"/><path d="M164.35,22.58h4.22a7,7,0,0,1,4.67,1.31c1,.87,1.49,2.29,1.49,4.26q0,4-2.59,4.89l3,10.51H172.3l-2.75-9.84h-2.27v9.84h-2.93Zm4,9a3.87,3.87,0,0,0,2.7-.76,3.57,3.57,0,0,0,.82-2.71,5.75,5.75,0,0,0-.29-2,1.92,1.92,0,0,0-1-1.09,4.76,4.76,0,0,0-2.05-.35h-1.29v6.94Z" transform="translate(0 0)" fill="#444"/><path d="M178.67,42a9.25,9.25,0,0,1-1.27-5.35v-7a13.5,13.5,0,0,1,.5-4,4.52,4.52,0,0,1,1.74-2.41A5.91,5.91,0,0,1,183,22.4a5.26,5.26,0,0,1,4.18,1.48,7,7,0,0,1,1.28,4.63v.78h-2.75v-.65a11.48,11.48,0,0,0-.18-2.32,2,2,0,0,0-.76-1.23,3,3,0,0,0-1.72-.41,2.52,2.52,0,0,0-1.81.56,2.56,2.56,0,0,0-.77,1.48,14.8,14.8,0,0,0-.17,2.49V37a7.67,7.67,0,0,0,.58,3.46,2.34,2.34,0,0,0,2.24,1,2.3,2.3,0,0,0,2.24-1.14,8.11,8.11,0,0,0,.61-3.65V35.24h-2.66V33.17h5.3V43.55H186.8l-.29-2.41a3.69,3.69,0,0,1-3.73,2.67,4.66,4.66,0,0,1-4.11-1.8" transform="translate(0 0)" fill="#444"/><polygon points="194.69 36.15 190.16 22.58 192.88 22.58 196.09 32.7 199.25 22.58 201.99 22.58 197.49 36.15 197.49 43.55 194.69 43.55 194.69 36.15" fill="#444"/></g></g></g></g></svg>